G04 MADE WITH FRITZING*
G04 WWW.FRITZING.ORG*
G04 DOUBLE SIDED*
G04 HOLES PLATED*
G04 CONTOUR ON CENTER OF CONTOUR VECTOR*
%ASAXBY*%
%FSLAX23Y23*%
%MOIN*%
%OFA0B0*%
%SFA1.0B1.0*%
%ADD10C,0.039370*%
%ADD11C,0.065000*%
%ADD12C,0.087500*%
%ADD13C,0.106299*%
%ADD14C,0.204725*%
%ADD15C,0.082000*%
%ADD16C,0.053000*%
%ADD17C,0.080000*%
%ADD18C,0.075000*%
%ADD19C,0.062992*%
%ADD20C,0.078000*%
%ADD21R,0.082000X0.082000*%
%ADD22R,0.080000X0.080000*%
%ADD23R,0.075000X0.075000*%
%ADD24R,0.062992X0.062992*%
%ADD25C,0.024000*%
%ADD26C,0.032000*%
%ADD27C,0.048000*%
%ADD28R,0.001000X0.001000*%
%LNCOPPER0*%
G90*
G70*
G54D10*
X2353Y1479D03*
G54D11*
X1554Y2077D03*
X1554Y2177D03*
G54D12*
X862Y477D03*
X1054Y477D03*
X754Y777D03*
X754Y969D03*
X2154Y1777D03*
X2154Y1969D03*
X1754Y777D03*
X1754Y969D03*
X854Y1577D03*
X854Y1769D03*
G54D13*
X3354Y577D03*
X3354Y977D03*
X3054Y977D03*
X3054Y577D03*
G54D14*
X3754Y177D03*
X3754Y2177D03*
X154Y177D03*
X154Y2177D03*
G54D15*
X3154Y1677D03*
X2856Y1677D03*
X3252Y1977D03*
X2954Y1977D03*
X2956Y2177D03*
X3254Y2177D03*
G54D10*
X2054Y1177D03*
G54D16*
X2054Y2177D03*
X1954Y2177D03*
X2004Y2103D03*
G54D17*
X354Y1477D03*
X354Y1677D03*
X354Y1877D03*
X354Y677D03*
X354Y877D03*
X3554Y1877D03*
X3554Y1677D03*
G54D18*
X2654Y1177D03*
X2654Y1577D03*
X2554Y1377D03*
X2554Y1777D03*
X2254Y1277D03*
X2254Y1677D03*
X2354Y1177D03*
X2354Y1577D03*
X2354Y477D03*
X2754Y477D03*
X1654Y1477D03*
X2054Y1477D03*
X2754Y1177D03*
X3154Y1177D03*
X2754Y1477D03*
X3154Y1477D03*
X1754Y1277D03*
X2154Y1277D03*
X1654Y1677D03*
X2054Y1677D03*
X854Y1277D03*
X1254Y1277D03*
G54D15*
X3654Y577D03*
X3654Y1177D03*
G54D18*
X654Y1277D03*
X654Y1677D03*
X854Y1177D03*
X1254Y1177D03*
X1554Y477D03*
X1954Y477D03*
X1554Y377D03*
X1954Y377D03*
X854Y277D03*
X1254Y277D03*
X2154Y677D03*
X2154Y977D03*
X2254Y677D03*
X2254Y977D03*
X2354Y677D03*
X2354Y977D03*
X2454Y677D03*
X2454Y977D03*
X2554Y677D03*
X2554Y977D03*
X2654Y677D03*
X2654Y977D03*
X2754Y677D03*
X2754Y977D03*
X954Y677D03*
X954Y977D03*
X1054Y677D03*
X1054Y977D03*
X1154Y677D03*
X1154Y977D03*
X1254Y677D03*
X1254Y977D03*
X1354Y677D03*
X1354Y977D03*
X1454Y677D03*
X1454Y977D03*
X1554Y677D03*
X1554Y977D03*
G54D19*
X1456Y1177D03*
X1554Y1177D03*
G54D18*
X2554Y2077D03*
X2554Y1977D03*
X1154Y1977D03*
X1154Y2077D03*
X1354Y1477D03*
X1054Y1477D03*
X1354Y1577D03*
X1054Y1577D03*
X1354Y1677D03*
X1054Y1677D03*
X1354Y1777D03*
X1054Y1777D03*
G54D20*
X3054Y577D03*
X3054Y977D03*
X3354Y977D03*
X3354Y577D03*
G54D21*
X3155Y1677D03*
X3253Y1977D03*
X2955Y2177D03*
G54D22*
X354Y1477D03*
X354Y677D03*
X3554Y1877D03*
G54D23*
X2154Y677D03*
X954Y677D03*
G54D24*
X1456Y1177D03*
G54D23*
X2554Y2077D03*
X1154Y1977D03*
X1354Y1477D03*
G54D25*
X2855Y1577D02*
X2766Y1490D01*
D02*
X3153Y1577D02*
X2855Y1577D01*
D02*
X3154Y1656D02*
X3153Y1577D01*
D02*
X2361Y1479D02*
X2655Y1479D01*
D02*
X2655Y1479D02*
X2737Y1477D01*
G54D26*
D02*
X2354Y2077D02*
X2171Y1978D01*
D02*
X2537Y2077D02*
X2354Y2077D01*
G54D25*
D02*
X2255Y1079D02*
X2342Y990D01*
D02*
X2254Y1260D02*
X2255Y1079D01*
G54D27*
D02*
X954Y577D02*
X1041Y490D01*
D02*
X754Y577D02*
X954Y577D01*
D02*
X754Y758D02*
X754Y577D01*
G54D25*
D02*
X2655Y577D02*
X2742Y490D01*
D02*
X2654Y660D02*
X2655Y577D01*
G54D26*
D02*
X2554Y1077D02*
X2554Y995D01*
D02*
X3154Y1077D02*
X2554Y1077D01*
D02*
X3154Y1160D02*
X3154Y1077D01*
D02*
X3054Y976D02*
X3054Y976D01*
D02*
X2953Y977D02*
X2764Y692D01*
D02*
X3054Y976D02*
X2953Y977D01*
G54D27*
D02*
X3252Y1956D02*
X3254Y1377D01*
X3254Y1377D02*
X3154Y1277D01*
D02*
X2455Y1279D02*
X2353Y1377D01*
D02*
X2153Y1377D02*
X1655Y1379D01*
D02*
X2353Y1377D02*
X2153Y1377D01*
D02*
X3154Y1277D02*
X2455Y1279D01*
D02*
X1655Y1379D02*
X1654Y1460D01*
D02*
X2754Y1877D02*
X2854Y1777D01*
D02*
X2254Y1877D02*
X2754Y1877D01*
D02*
X2854Y1777D02*
X2856Y1698D01*
D02*
X2168Y1957D02*
X2254Y1877D01*
D02*
X2140Y1982D02*
X2023Y2086D01*
D02*
X1354Y476D02*
X1073Y477D01*
D02*
X1554Y577D02*
X1354Y476D01*
D02*
X1554Y660D02*
X1554Y577D01*
G54D25*
D02*
X1655Y777D02*
X1566Y689D01*
D02*
X1735Y777D02*
X1655Y777D01*
D02*
X954Y1177D02*
X872Y1177D01*
D02*
X1155Y1076D02*
X954Y1177D01*
D02*
X1154Y995D02*
X1155Y1076D01*
D02*
X1571Y977D02*
X1735Y970D01*
G54D26*
D02*
X1555Y1778D02*
X1355Y1978D01*
D02*
X2135Y1777D02*
X1555Y1778D01*
D02*
X1355Y1978D02*
X1172Y1977D01*
G54D25*
D02*
X2137Y677D02*
X1754Y676D01*
D02*
X1754Y676D02*
X1566Y490D01*
D02*
X2053Y777D02*
X2054Y1169D01*
D02*
X2255Y777D02*
X2053Y777D01*
D02*
X2342Y690D02*
X2255Y777D01*
D02*
X1855Y577D02*
X2255Y578D01*
D02*
X2255Y578D02*
X2254Y660D01*
D02*
X1655Y376D02*
X1855Y577D01*
D02*
X1572Y377D02*
X1655Y376D01*
D02*
X2554Y960D02*
X2554Y695D01*
D02*
X2654Y960D02*
X2654Y695D01*
G54D28*
X1523Y2210D02*
X1586Y2210D01*
X1522Y2209D02*
X1586Y2209D01*
X1522Y2208D02*
X1586Y2208D01*
X1522Y2207D02*
X1586Y2207D01*
X1522Y2206D02*
X1586Y2206D01*
X1522Y2205D02*
X1586Y2205D01*
X1522Y2204D02*
X1586Y2204D01*
X1522Y2203D02*
X1586Y2203D01*
X1522Y2202D02*
X1586Y2202D01*
X1522Y2201D02*
X1586Y2201D01*
X1522Y2200D02*
X1586Y2200D01*
X1522Y2199D02*
X1586Y2199D01*
X1522Y2198D02*
X1586Y2198D01*
X1522Y2197D02*
X1586Y2197D01*
X1522Y2196D02*
X1586Y2196D01*
X1522Y2195D02*
X1586Y2195D01*
X1522Y2194D02*
X1586Y2194D01*
X1522Y2193D02*
X1586Y2193D01*
X1522Y2192D02*
X1586Y2192D01*
X1522Y2191D02*
X1551Y2191D01*
X1558Y2191D02*
X1586Y2191D01*
X1522Y2190D02*
X1548Y2190D01*
X1561Y2190D02*
X1586Y2190D01*
X1522Y2189D02*
X1546Y2189D01*
X1563Y2189D02*
X1586Y2189D01*
X1522Y2188D02*
X1545Y2188D01*
X1564Y2188D02*
X1586Y2188D01*
X1522Y2187D02*
X1544Y2187D01*
X1565Y2187D02*
X1586Y2187D01*
X1522Y2186D02*
X1543Y2186D01*
X1566Y2186D02*
X1586Y2186D01*
X1522Y2185D02*
X1542Y2185D01*
X1567Y2185D02*
X1586Y2185D01*
X1522Y2184D02*
X1542Y2184D01*
X1567Y2184D02*
X1586Y2184D01*
X1522Y2183D02*
X1541Y2183D01*
X1568Y2183D02*
X1586Y2183D01*
X1522Y2182D02*
X1541Y2182D01*
X1568Y2182D02*
X1586Y2182D01*
X1522Y2181D02*
X1541Y2181D01*
X1568Y2181D02*
X1586Y2181D01*
X1522Y2180D02*
X1540Y2180D01*
X1569Y2180D02*
X1586Y2180D01*
X1522Y2179D02*
X1540Y2179D01*
X1569Y2179D02*
X1586Y2179D01*
X1522Y2178D02*
X1540Y2178D01*
X1569Y2178D02*
X1586Y2178D01*
X1522Y2177D02*
X1540Y2177D01*
X1569Y2177D02*
X1586Y2177D01*
X1522Y2176D02*
X1540Y2176D01*
X1569Y2176D02*
X1586Y2176D01*
X1522Y2175D02*
X1540Y2175D01*
X1569Y2175D02*
X1586Y2175D01*
X1522Y2174D02*
X1541Y2174D01*
X1568Y2174D02*
X1586Y2174D01*
X1522Y2173D02*
X1541Y2173D01*
X1568Y2173D02*
X1586Y2173D01*
X1522Y2172D02*
X1541Y2172D01*
X1568Y2172D02*
X1586Y2172D01*
X1522Y2171D02*
X1542Y2171D01*
X1567Y2171D02*
X1586Y2171D01*
X1522Y2170D02*
X1543Y2170D01*
X1566Y2170D02*
X1586Y2170D01*
X1522Y2169D02*
X1543Y2169D01*
X1566Y2169D02*
X1586Y2169D01*
X1522Y2168D02*
X1544Y2168D01*
X1565Y2168D02*
X1586Y2168D01*
X1522Y2167D02*
X1545Y2167D01*
X1564Y2167D02*
X1586Y2167D01*
X1522Y2166D02*
X1547Y2166D01*
X1562Y2166D02*
X1586Y2166D01*
X1522Y2165D02*
X1548Y2165D01*
X1560Y2165D02*
X1586Y2165D01*
X1522Y2164D02*
X1551Y2164D01*
X1558Y2164D02*
X1586Y2164D01*
X1522Y2163D02*
X1586Y2163D01*
X1522Y2162D02*
X1586Y2162D01*
X1522Y2161D02*
X1586Y2161D01*
X1522Y2160D02*
X1586Y2160D01*
X1522Y2159D02*
X1586Y2159D01*
X1522Y2158D02*
X1586Y2158D01*
X1522Y2157D02*
X1586Y2157D01*
X1522Y2156D02*
X1586Y2156D01*
X1522Y2155D02*
X1586Y2155D01*
X1522Y2154D02*
X1586Y2154D01*
X1522Y2153D02*
X1586Y2153D01*
X1522Y2152D02*
X1586Y2152D01*
X1522Y2151D02*
X1586Y2151D01*
X1522Y2150D02*
X1586Y2150D01*
X1522Y2149D02*
X1586Y2149D01*
X1522Y2148D02*
X1586Y2148D01*
X1522Y2147D02*
X1586Y2147D01*
X1522Y2146D02*
X1586Y2146D01*
D02*
G04 End of Copper0*
M02*