; NON-PLATED HOLES START AT T1
; THROUGH (PLATED) HOLES START AT T100
M48
INCH
T1C0.053000
T100C0.040000
T101C0.032000
T102C0.039370
T103C0.051181
T104C0.027559
T105C0.042000
T106C0.037500
T107C0.015748
T108C0.035000
T109C0.031497
T110C0.125984
%
T1
X020040Y021029
X020540Y021772
X019540Y021772
T100
X003540Y008772
X035540Y018772
X003540Y018772
X003540Y016772
X035540Y016772
X003540Y006772
X003540Y014772
T101
X020040Y021029
X020540Y021772
X019540Y021772
T102
X030540Y009772
X033540Y005772
X033540Y009772
X030540Y005772
T103
X030540Y009772
X033540Y005772
X033540Y009772
X030540Y005772
T104
X015539Y021772
X015539Y020772
T105
X029540Y019772
X036540Y011772
X028560Y016772
X029560Y021772
X032520Y019772
X036540Y005772
X032540Y021772
X031540Y016772
T106
X008618Y004771
X021539Y017772
X021539Y019693
X017539Y009693
X007539Y009693
X008539Y017693
X008539Y015772
X017539Y007772
X010539Y004771
X007539Y007772
T107
X023533Y014786
X020540Y011772
T108
X012540Y009772
X014540Y009772
X023540Y011772
X015540Y003772
X008540Y012772
X019540Y004772
X008540Y002772
X019540Y003772
X015540Y004772
X013540Y006772
X027540Y011772
X013540Y016772
X021540Y009772
X006540Y016772
X026540Y015772
X025540Y019772
X020540Y016772
X025540Y009772
X022540Y012772
X010540Y017772
X031540Y014772
X022540Y009772
X024540Y009772
X027540Y006772
X021540Y012772
X009540Y006772
X025540Y013772
X011540Y019772
X023540Y006772
X013540Y017772
X016540Y014772
X011540Y009772
X010540Y006772
X012540Y002772
X026540Y009772
X010540Y016772
X012540Y012772
X015540Y009772
X009540Y009772
X006540Y012772
X022540Y006772
X024540Y006772
X027540Y009772
X022540Y016772
X011540Y020772
X010540Y009772
X013540Y015772
X017540Y012772
X013540Y014772
X025540Y017772
X026540Y006772
X015540Y006772
X023540Y009772
X020540Y014772
X012540Y011772
X011540Y006772
X026540Y011772
X027540Y004772
X027540Y014772
X025540Y020772
X031540Y011772
X008540Y011772
X012540Y006772
X014540Y006772
X016540Y016772
X023540Y015772
X025540Y006772
X023540Y004772
X010540Y014772
X010540Y015772
X013540Y009772
X021540Y006772
T109
X015540Y011772
X014555Y011772
T110
X037539Y021772
X037539Y001772
X001539Y021772
X001539Y001772
T00
M30
