G04 MADE WITH FRITZING*
G04 WWW.FRITZING.ORG*
G04 DOUBLE SIDED*
G04 HOLES PLATED*
G04 CONTOUR ON CENTER OF CONTOUR VECTOR*
%ASAXBY*%
%FSLAX23Y23*%
%MOIN*%
%OFA0B0*%
%SFA1.0B1.0*%
%ADD10C,0.049370*%
%ADD11C,0.075000*%
%ADD12C,0.097500*%
%ADD13C,0.116299*%
%ADD14C,0.214725*%
%ADD15C,0.092000*%
%ADD16C,0.053000*%
%ADD17C,0.090000*%
%ADD18C,0.085000*%
%ADD19C,0.072992*%
%ADD20C,0.088000*%
%ADD21R,0.092000X0.092000*%
%ADD22R,0.090000X0.090000*%
%ADD23R,0.085000X0.085000*%
%ADD24R,0.072992X0.072992*%
%ADD25R,0.001000X0.001000*%
%LNMASK0*%
G90*
G70*
G54D10*
X2353Y1479D03*
G54D11*
X1554Y2077D03*
X1554Y2177D03*
G54D12*
X862Y477D03*
X1054Y477D03*
X754Y777D03*
X754Y969D03*
X2154Y1777D03*
X2154Y1969D03*
X1754Y777D03*
X1754Y969D03*
X854Y1577D03*
X854Y1769D03*
G54D13*
X3354Y577D03*
X3354Y977D03*
X3054Y977D03*
X3054Y577D03*
G54D14*
X3754Y177D03*
X3754Y2177D03*
X154Y177D03*
X154Y2177D03*
G54D15*
X3154Y1677D03*
X2856Y1677D03*
X3252Y1977D03*
X2954Y1977D03*
X2956Y2177D03*
X3254Y2177D03*
G54D10*
X2054Y1177D03*
G54D16*
X2054Y2177D03*
X1954Y2177D03*
X2004Y2103D03*
G54D17*
X354Y1477D03*
X354Y1677D03*
X354Y1877D03*
X354Y677D03*
X354Y877D03*
X3554Y1877D03*
X3554Y1677D03*
G54D18*
X2654Y1177D03*
X2654Y1577D03*
X2554Y1377D03*
X2554Y1777D03*
X2254Y1277D03*
X2254Y1677D03*
X2354Y1177D03*
X2354Y1577D03*
X2354Y477D03*
X2754Y477D03*
X1654Y1477D03*
X2054Y1477D03*
X2754Y1177D03*
X3154Y1177D03*
X2754Y1477D03*
X3154Y1477D03*
X1754Y1277D03*
X2154Y1277D03*
X1654Y1677D03*
X2054Y1677D03*
X854Y1277D03*
X1254Y1277D03*
G54D15*
X3654Y577D03*
X3654Y1177D03*
G54D18*
X654Y1277D03*
X654Y1677D03*
X854Y1177D03*
X1254Y1177D03*
X1554Y477D03*
X1954Y477D03*
X1554Y377D03*
X1954Y377D03*
X854Y277D03*
X1254Y277D03*
X2154Y677D03*
X2154Y977D03*
X2254Y677D03*
X2254Y977D03*
X2354Y677D03*
X2354Y977D03*
X2454Y677D03*
X2454Y977D03*
X2554Y677D03*
X2554Y977D03*
X2654Y677D03*
X2654Y977D03*
X2754Y677D03*
X2754Y977D03*
X954Y677D03*
X954Y977D03*
X1054Y677D03*
X1054Y977D03*
X1154Y677D03*
X1154Y977D03*
X1254Y677D03*
X1254Y977D03*
X1354Y677D03*
X1354Y977D03*
X1454Y677D03*
X1454Y977D03*
X1554Y677D03*
X1554Y977D03*
G54D19*
X1456Y1177D03*
X1554Y1177D03*
G54D18*
X2554Y2077D03*
X2554Y1977D03*
X1154Y1977D03*
X1154Y2077D03*
X1354Y1477D03*
X1054Y1477D03*
X1354Y1577D03*
X1054Y1577D03*
X1354Y1677D03*
X1054Y1677D03*
X1354Y1777D03*
X1054Y1777D03*
G54D20*
X3054Y577D03*
X3054Y977D03*
X3354Y977D03*
X3354Y577D03*
G54D21*
X3155Y1677D03*
X3253Y1977D03*
X2955Y2177D03*
G54D22*
X354Y1477D03*
X354Y677D03*
X3554Y1877D03*
G54D23*
X2154Y677D03*
X954Y677D03*
G54D24*
X1456Y1177D03*
G54D23*
X2554Y2077D03*
X1154Y1977D03*
X1354Y1477D03*
G54D25*
X1518Y2215D02*
X1591Y2215D01*
X1517Y2214D02*
X1591Y2214D01*
X1517Y2213D02*
X1591Y2213D01*
X1517Y2212D02*
X1591Y2212D01*
X1517Y2211D02*
X1591Y2211D01*
X1517Y2210D02*
X1591Y2210D01*
X1517Y2209D02*
X1591Y2209D01*
X1517Y2208D02*
X1591Y2208D01*
X1517Y2207D02*
X1591Y2207D01*
X1517Y2206D02*
X1591Y2206D01*
X1517Y2205D02*
X1591Y2205D01*
X1517Y2204D02*
X1591Y2204D01*
X1517Y2203D02*
X1591Y2203D01*
X1517Y2202D02*
X1591Y2202D01*
X1517Y2201D02*
X1591Y2201D01*
X1517Y2200D02*
X1591Y2200D01*
X1517Y2199D02*
X1591Y2199D01*
X1517Y2198D02*
X1591Y2198D01*
X1517Y2197D02*
X1591Y2197D01*
X1517Y2196D02*
X1591Y2196D01*
X1517Y2195D02*
X1591Y2195D01*
X1517Y2194D02*
X1591Y2194D01*
X1517Y2193D02*
X1591Y2193D01*
X1517Y2192D02*
X1591Y2192D01*
X1517Y2191D02*
X1591Y2191D01*
X1517Y2190D02*
X1591Y2190D01*
X1517Y2189D02*
X1591Y2189D01*
X1517Y2188D02*
X1591Y2188D01*
X1517Y2187D02*
X1591Y2187D01*
X1517Y2186D02*
X1551Y2186D01*
X1557Y2186D02*
X1591Y2186D01*
X1517Y2185D02*
X1549Y2185D01*
X1560Y2185D02*
X1591Y2185D01*
X1517Y2184D02*
X1548Y2184D01*
X1561Y2184D02*
X1591Y2184D01*
X1517Y2183D02*
X1547Y2183D01*
X1562Y2183D02*
X1591Y2183D01*
X1517Y2182D02*
X1546Y2182D01*
X1563Y2182D02*
X1591Y2182D01*
X1517Y2181D02*
X1546Y2181D01*
X1563Y2181D02*
X1591Y2181D01*
X1517Y2180D02*
X1545Y2180D01*
X1563Y2180D02*
X1591Y2180D01*
X1517Y2179D02*
X1545Y2179D01*
X1564Y2179D02*
X1591Y2179D01*
X1517Y2178D02*
X1545Y2178D01*
X1564Y2178D02*
X1591Y2178D01*
X1517Y2177D02*
X1545Y2177D01*
X1564Y2177D02*
X1591Y2177D01*
X1517Y2176D02*
X1545Y2176D01*
X1564Y2176D02*
X1591Y2176D01*
X1517Y2175D02*
X1546Y2175D01*
X1563Y2175D02*
X1591Y2175D01*
X1517Y2174D02*
X1546Y2174D01*
X1563Y2174D02*
X1591Y2174D01*
X1517Y2173D02*
X1546Y2173D01*
X1563Y2173D02*
X1591Y2173D01*
X1517Y2172D02*
X1547Y2172D01*
X1562Y2172D02*
X1591Y2172D01*
X1517Y2171D02*
X1548Y2171D01*
X1561Y2171D02*
X1591Y2171D01*
X1517Y2170D02*
X1549Y2170D01*
X1560Y2170D02*
X1591Y2170D01*
X1517Y2169D02*
X1552Y2169D01*
X1557Y2169D02*
X1591Y2169D01*
X1517Y2168D02*
X1591Y2168D01*
X1517Y2167D02*
X1591Y2167D01*
X1517Y2166D02*
X1591Y2166D01*
X1517Y2165D02*
X1591Y2165D01*
X1517Y2164D02*
X1591Y2164D01*
X1517Y2163D02*
X1591Y2163D01*
X1517Y2162D02*
X1591Y2162D01*
X1517Y2161D02*
X1591Y2161D01*
X1517Y2160D02*
X1591Y2160D01*
X1517Y2159D02*
X1591Y2159D01*
X1517Y2158D02*
X1591Y2158D01*
X1517Y2157D02*
X1591Y2157D01*
X1517Y2156D02*
X1591Y2156D01*
X1517Y2155D02*
X1591Y2155D01*
X1517Y2154D02*
X1591Y2154D01*
X1517Y2153D02*
X1591Y2153D01*
X1517Y2152D02*
X1591Y2152D01*
X1517Y2151D02*
X1591Y2151D01*
X1517Y2150D02*
X1591Y2150D01*
X1517Y2149D02*
X1591Y2149D01*
X1517Y2148D02*
X1591Y2148D01*
X1517Y2147D02*
X1591Y2147D01*
X1517Y2146D02*
X1591Y2146D01*
X1517Y2145D02*
X1591Y2145D01*
X1517Y2144D02*
X1591Y2144D01*
X1517Y2143D02*
X1591Y2143D01*
X1517Y2142D02*
X1591Y2142D01*
X1517Y2141D02*
X1591Y2141D01*
D02*
G04 End of Mask0*
M02*